<svg width="144" height="138" viewBox="0 0 144 138" fill="none" xmlns="http://www.w3.org/2000/svg">
<g clip-path="url(#clip0_6_2)">
<path d="M72 0.129364C66.0239 0.129364 60.0508 2.30341 55.5075 6.65741L6.94687 53.1893C-2.13973 61.8973 -2.13973 76.0973 6.94687 84.8053L55.5075 131.343C64.5919 140.048 79.4081 140.048 88.4925 131.343L137.053 84.8107C146.14 76.1027 146.14 61.9027 137.053 53.1947L88.4981 6.65741C83.9548 2.30341 77.9761 0.129364 72 0.129364ZM72 5.61163C76.4898 5.61163 80.9827 7.26074 84.4256 10.5602L110.841 35.88H106.762C102.181 35.88 97.7855 37.624 94.545 40.7262V40.7315L75.0544 59.4101C73.3445 61.0487 70.6533 61.0503 68.94 59.4101L49.4494 40.7315C46.2133 37.627 41.8195 35.88 37.2375 35.88H33.1537L59.58 10.5602C63.0229 7.26074 67.5102 5.61163 72 5.61163ZM27.3937 41.4H37.2375C40.2933 41.4 43.2216 42.5613 45.3769 44.629V44.6344L64.8675 63.3129C68.7817 67.0601 75.215 67.0618 79.1269 63.3129L98.6175 44.6344C100.78 42.5641 103.707 41.4 106.762 41.4H116.601L132.981 57.0975C139.866 63.6965 139.866 74.3089 132.981 80.9079L116.606 96.6H106.762C103.707 96.6 100.78 95.4357 98.6175 93.3656L79.1269 74.6871C77.1709 72.8127 74.5856 71.8786 72 71.8786C69.4144 71.8785 66.8246 72.8135 64.8675 74.6871L45.3769 93.3656V93.371C43.2216 95.4385 40.2933 96.6 37.2375 96.6H27.3994L11.0194 80.9025C4.1335 74.3035 4.1335 63.6911 11.0194 57.0921L27.3937 41.4ZM72 77.3608C73.1007 77.361 74.1994 77.7706 75.0544 78.5899L94.545 97.2684V97.2738C97.7855 100.376 102.181 102.12 106.762 102.12H110.846L84.42 127.44C77.5376 134.035 66.4623 134.035 59.58 127.44L33.1594 102.12H37.2375C41.8195 102.12 46.2133 100.373 49.4494 97.2684L68.94 78.5899C69.7967 77.7698 70.8993 77.3606 72 77.3608Z" fill="white"/>
</g>
<defs>
<clipPath id="clip0_6_2">
<rect width="144" height="138" fill="white"/>
</clipPath>
</defs>
</svg>
